<svg width="16.000000" height="16.000000" viewBox="0 0 16 16" fill="none" xmlns="http://www.w3.org/2000/svg" xmlns:xlink="http://www.w3.org/1999/xlink">
	<desc>
			Created with Pixso.
	</desc>
	<defs>
		<clipPath id="clip2_5">
			<rect id="kj" width="16.000000" height="16.000000" fill="white" fill-opacity="0"/>
		</clipPath>
	</defs>
	<rect id="kj" width="16.000000" height="16.000000" fill="#FFFFFF" fill-opacity="0"/>
	<g clip-path="url(#clip2_5)">
		<path id="矢量 4" d="M8.19 8L8.26 8.01C8.31 8.01 8.56 8.02 9.01 8.02C9.46 8.03 9.89 8.01 10.29 7.97C10.7 7.94 11.08 7.86 11.43 7.73C11.78 7.61 12.06 7.47 12.28 7.3C12.5 7.13 12.62 7.01 12.66 6.93C12.7 6.85 12.6 7.07 12.35 7.59C12.1 8.12 11.93 8.54 11.83 8.86C11.74 9.18 11.63 9.52 11.5 9.89C11.37 10.25 11.23 10.58 11.07 10.88C10.91 11.18 10.75 11.45 10.58 11.67C10.41 11.89 10.18 12.14 9.88 12.41C9.59 12.69 9.32 12.91 9.06 13.08C8.81 13.24 8.53 13.39 8.23 13.53C7.93 13.66 7.64 13.77 7.37 13.86C7.09 13.95 6.6 14.01 5.89 14.03C5.18 14.05 4.63 14.03 4.24 13.95C3.85 13.88 3.57 13.82 3.4 13.79" stroke="#000000" stroke-opacity="1.000000" stroke-width="1.000000" stroke-linecap="round"/>
		<path id="矢量 5" d="M13.53 4.65L13.45 4.73C13.39 4.78 13.35 4.87 13.32 5C13.29 5.13 13.37 5.19 13.54 5.18C13.72 5.17 13.84 5.1 13.92 4.96C14 4.83 13.99 4.71 13.89 4.61C13.79 4.51 13.66 4.48 13.51 4.52" stroke="#000000" stroke-opacity="1.000000" stroke-width="1.000000" stroke-linecap="round"/>
		<path id="矢量 6" d="M7.25 1.27L7.2 1.36C7.18 1.42 7.05 1.53 6.83 1.7C6.6 1.87 6.37 2.05 6.12 2.24C5.87 2.42 5.64 2.6 5.43 2.76C5.21 2.93 5 3.11 4.79 3.31C4.58 3.51 4.26 3.79 3.83 4.14C3.41 4.49 3.09 4.75 2.87 4.92C2.65 5.09 2.46 5.25 2.29 5.39C2.12 5.53 1.91 5.71 1.67 5.93C1.43 6.16 1.2 6.39 0.98 6.64C0.77 6.89 0.61 7.11 0.5 7.31C0.39 7.51 0.29 7.69 0.2 7.86C0.1 8.02 -0.01 8.2 -0.13 8.38" stroke="#000000" stroke-opacity="1.000000" stroke-width="1.000000" stroke-linecap="round"/>
		<path id="矢量 7" d="M7.03 4.8L6.97 4.79C6.93 4.78 6.6 4.77 5.98 4.75C5.36 4.73 4.89 4.73 4.56 4.74C4.23 4.74 3.94 4.76 3.69 4.8C3.43 4.84 3.24 4.91 3.09 5C2.95 5.09 2.88 5.24 2.88 5.43C2.87 5.63 2.89 5.81 2.93 6C2.96 6.18 3.02 6.36 3.11 6.56C3.2 6.75 3.37 6.98 3.63 7.24C3.88 7.5 4.08 7.68 4.21 7.77" stroke="#000000" stroke-opacity="1.000000" stroke-width="1.000000" stroke-linecap="round"/>
	</g>
</svg>
